<?xml version="1.0" encoding="UTF-8"?>
<svg xmlns="http://www.w3.org/2000/svg" viewBox="0 0 400 400" width="400" height="400">
  <rect width="400" height="400" fill="#f8f9fa" stroke="#dee2e6" rx="10"/>
  
  <!-- Pie chart center -->
  <circle cx="200" cy="150" r="80" fill="#667eea"/>
  
  <!-- Pie slices -->
  <path d="M 200 70 A 80 80 0 0 1 280 150 L 200 150 Z" fill="#28a745"/>
  <path d="M 280 150 A 80 80 0 0 1 244 218 L 200 150 Z" fill="#ffc107"/>
  <path d="M 244 218 A 80 80 0 0 1 156 218 L 200 150 Z" fill="#17a2b8"/>
  <path d="M 156 218 A 80 80 0 0 1 200 70 L 200 150 Z" fill="#dc3545"/>
  
  <text x="200" y="50" font-family="Arial, sans-serif" font-size="16" font-weight="bold" fill="#343a40" text-anchor="middle">💸 Use of Funds</text>
  
  <!-- Legend -->
  <rect x="50" y="270" width="15" height="15" fill="#28a745"/>
  <text x="75" y="282" font-family="Arial, sans-serif" font-size="12" fill="#343a40">Development (40%)</text>
  
  <rect x="50" y="295" width="15" height="15" fill="#ffc107"/>
  <text x="75" y="307" font-family="Arial, sans-serif" font-size="12" fill="#343a40">Hardware (25%)</text>
  
  <rect x="50" y="320" width="15" height="15" fill="#17a2b8"/>
  <text x="75" y="332" font-family="Arial, sans-serif" font-size="12" fill="#343a40">Marketing (15%)</text>
  
  <rect x="200" y="270" width="15" height="15" fill="#dc3545"/>
  <text x="225" y="282" font-family="Arial, sans-serif" font-size="12" fill="#343a40">Operations (10%)</text>
  
  <rect x="200" y="295" width="15" height="15" fill="#667eea"/>
  <text x="225" y="307" font-family="Arial, sans-serif" font-size="12" fill="#343a40">Rewards (10%)</text>
</svg>